<?xml version="1.0" encoding="UTF-8" standalone="no"?>
<svg
   version="1.1"
   width="595.27557pt"
   height="841.88977pt"
   id="svg84"
   viewBox="0 0 595.27557 841.88977"
   sodipodi:docname="badan-nasional-sertifikasi-profesi-bnsp-seeklogo.cdr"
   xmlns:inkscape="http://www.inkscape.org/namespaces/inkscape"
   xmlns:sodipodi="http://sodipodi.sourceforge.net/DTD/sodipodi-0.dtd"
   xmlns="http://www.w3.org/2000/svg"
   xmlns:svg="http://www.w3.org/2000/svg">
  <defs
     id="defs88" />
  <sodipodi:namedview
     id="namedview86"
     pagecolor="#ffffff"
     bordercolor="#000000"
     borderopacity="0.25"
     inkscape:showpageshadow="2"
     inkscape:pageopacity="0.0"
     inkscape:pagecheckerboard="0"
     inkscape:deskcolor="#d1d1d1"
     inkscape:document-units="pt" />
  <g
     id="Layer1000">
    <g
       id="Layer1001">
      <path
         d="m 74.7746,368.2329 v 77.2677 h 77.904 v -77.2677 z"
         style="fill:#1b1918;fill-rule:evenodd"
         id="path2" />
      <path
         d="m 55.1316,392.9533 c 2.8808,-4.1556 5.1559,-8.8565 11.2975,-12.3264 1.8448,-0.4179 3.7837,-0.5043 5.2857,0.449 l 37.9154,27.9711 c 1.1908,0.3237 2.3817,0.237 3.5722,-0.2956 l 65.232,-81.2194 c 2.3125,-0.4264 2.8959,0.9246 1.7796,3.7547 -21.342,32.1333 -42.2762,64.6492 -66.4568,94.1205 -1.4123,0.7106 -2.8857,0.4048 -4.6412,-0.2568 -15.8516,-6.905 -33.4457,-17.1372 -51.194,-27.6639 -2.1092,-1.6923 -2.9097,-3.1833 -2.7904,-4.5332 z"
         style="fill:#e30016;fill-rule:evenodd"
         id="path4" />
      <path
         d="m 110.2292,376.2139 a 10.4114,10.4114 0 0 1 10.4114,10.4114 10.4114,10.4114 0 1 1 -10.4114,-10.4114 z"
         style="fill:#ffec00;fill-rule:evenodd"
         id="path6" />
      <path
         d="m 62.6176,486.4303 c 9.5051,-3.6584 19.569,-20.118 34.0526,-50.8969 3.1436,-5.7767 8.3364,-8.4787 15.9798,-7.5056 33.4902,3.6505 34.9058,14.531 15.7844,40.2225 -0.557,-1.6478 -0.7393,-3.6703 -0.0465,-6.5679 l 4.6001,-11.3797 c 0.9768,-10.2619 -24.1129,-20.565 -32.0735,0.3462 -6.482,12.5359 -14.762,23.6613 -25.2567,32.8765 -1.5236,1.953 -15.6223,4.674 -13.0402,2.9049 z"
         style="fill:#ffec00;fill-rule:evenodd"
         id="path8" />
    </g>
    <g
       id="Layer1002">
      <path
         d="m 241.5637,407.5407 c 29.0829,3.9577 24.6299,48.4594 6.8828,51.311 -5.3776,0.864 -7.2482,3.2211 -17.7367,3.2211 h -44.0155 v -2.5382 h 3.4781 c 3.8775,0 4.955,-4.4152 4.9408,-7.3978 l -0.3994,-81.6625 c -0.0128,-2.6878 -1.0298,-3.0317 -4.5414,-3.0317 h -3.4781 v -2.5378 h 40.2792 c 7.5197,0 5.8212,-0.1131 10.1344,1.6449 19.9335,8.125 21.8285,28.6484 4.4558,40.991 z m -31.3155,-0.9176 c 8.841,1.7195 21.1473,1.1237 26.2622,-7.4613 1.7577,-2.9509 2.6555,-6.2042 2.6555,-9.7291 0,-9.5219 -4.5726,-20.7524 -14.1665,-20.6033 l -14.7512,0.2296 z m 0.2605,49.792 c 5.3345,1.2455 10.6424,1.3975 15.8156,1.8564 14.9539,1.3266 25.6924,-9.1148 23.3706,-25.4341 -1.8148,-12.7545 -14.0341,-19.5381 -27.0131,-21.2675 -2.8187,-0.3756 -5.269,0.0518 -7.285,0.1408 -2.0163,0.0893 -3.6425,0.2586 -4.8881,0.47 z"
         style="fill:#1b1918;fill-rule:evenodd"
         id="path11" />
      <path
         d="m 323.2965,397.7692 45.338,40.1873 v -57.1252 c 0,-8.743 1.4477,-13.7347 -7.2929,-14.4741 h -4.8143 v -2.6858 h 33.0908 v 2.6858 c -10.262,0 -12.1113,6.3609 -12.1113,14.4741 v 83.3623 h -3.6452 l -38.5448,-34.114 v 0.0166 l -45.338,-40.1873 v 57.1252 c 0,8.0478 1.0038,14.474 11.465,14.474 v 2.6858 h -32.092 v -2.6858 c 12.116,-0.7793 11.7547,-2.4738 11.7547,-14.474 v -83.3624 h 3.6453 l 38.5447,34.114 z"
         style="fill:#1b1918;fill-rule:evenodd"
         id="path13" />
      <path
         d="m 452.9735,362.7057 v 18.9663 h -2.5378 c -2.1912,-3.5711 -1.8428,-4.9085 -4.8368,-7.615 -3.7601,-3.3993 -7.0231,-4.1162 -9.7424,-5.5239 -9.1343,-4.7296 -15.1993,-1.0448 -21.1325,4.1993 -3.2018,2.8295 -2.8367,6.1506 -2.194,9.8073 1.8657,10.6129 15.785,18.1103 22.32,23.0352 8.0166,6.0417 14.4924,10.4008 17.0716,13.4492 14.9049,17.6165 -3.3032,43.8083 -20.0846,43.6921 l -30.1739,-0.2089 h -2.5379 l -0.1046,-23.7047 h 2.5379 c 0.0184,0.1032 0.9348,9.3974 1.5168,11.3261 1.402,4.6457 5.2152,7.3636 10.2829,8.7959 11.3128,3.198 31.5088,-2.5421 31.5088,-17.0164 0,-2.3031 -0.4688,-6.3056 -1.7232,-8.6502 -2.4321,-4.5473 -11.834,-12.7684 -16.5656,-15.3978 -8.0085,-4.4501 -11.3222,-8.4835 -14.7062,-11.139 -3.384,-2.6555 -5.9689,-5.6163 -7.7079,-8.8123 -1.7626,-3.2196 -2.632,-6.768 -2.632,-10.622 0,-6.6977 2.5849,-12.4787 7.7315,-17.3197 5.1466,-4.841 11.7264,-7.2615 19.6696,-7.2615 10.5503,0 16.8443,0 24.0403,0 z"
         style="fill:#1b1918;fill-rule:evenodd"
         id="path15" />
      <path
         d="m 492.1977,415.77 v 28.8561 c 0,6.2028 0.6346,10.0485 1.9272,11.5373 1.7391,2.1339 4.3708,3.2009 7.896,3.2009 h 3.5722 v 2.6795 h -40.0442 v -2.6795 h 3.5249 c 3.9483,0 2.8321,-1.3621 4.5153,-4.0692 0.9215,-1.4825 1.3861,-5.0615 1.3861,-10.669 v -63.8654 c 0,-6.2031 -0.6069,-10.0557 -1.8564,-11.5376 -1.802,-2.1371 -0.5,-3.2006 -4.045,-3.2006 h -3.5249 v -2.6799 h 34.2629 c 8.3662,0 18.3507,0.9162 23.1888,2.7295 4.8169,1.8057 8.883,4.8878 12.1964,9.2049 3.3134,4.3172 4.9583,9.4286 4.9583,15.3338 0,8.064 -2.516,14.616 -7.5432,19.6509 -7.0861,7.0968 -22.237,8.3466 -32.0012,7.0466 -1.2402,-0.1519 -2.5166,-0.3481 -3.8322,-0.5856 v -4.2874 c 0.6551,0.1006 1.283,0.1868 1.8817,0.2579 6.7079,0.8963 15.5423,-0.2018 20.226,-5.4833 3.4546,-3.8954 5.1934,-8.9323 5.1934,-15.1104 0,-4.2675 -0.8224,-8.2375 -2.4673,-11.8848 -4.407,-9.7713 -19.6152,-11.9812 -29.4148,-9.5278 v 40.9147 l 0.2106,0.0431 v 4.174 z"
         style="fill:#1b1918;fill-rule:evenodd"
         id="path17" />
    </g>
    <g
       id="Layer1003">
      <path
         d="M 72.9845,514.1123 V 494.843 h 6.3799 c 1.2983,0 2.3394,0.193 3.1269,0.583 0.7838,0.3904 1.3972,0.9913 1.8405,1.8032 0.4473,0.8076 0.669,1.6551 0.669,2.5432 0,0.8209 -0.1978,1.5968 -0.5899,2.3236 -0.3917,0.7265 -0.9856,1.3141 -1.781,1.7626 1.0293,0.341 1.8204,0.924 2.3709,1.7495 0.5539,0.8206 0.8311,1.794 0.8311,2.9154 0,0.906 -0.1703,1.7448 -0.5068,2.5209 -0.3365,0.7758 -0.7517,1.3725 -1.2467,1.794 -0.4946,0.4173 -1.116,0.7356 -1.8601,0.951 -0.748,0.2152 -1.6625,0.3229 -2.747,0.3229 z m 2.2558,-11.1688 h 3.6771 c 0.9975,0 1.7138,-0.0762 2.145,-0.2242 0.574,-0.1927 1.0057,-0.5156 1.2945,-0.9643 0.2889,-0.4485 0.4352,-1.0092 0.4352,-1.6864 0,-0.6415 -0.1347,-1.2067 -0.4074,-1.6911 -0.2693,-0.489 -0.657,-0.8252 -1.1599,-1.0046 -0.5026,-0.1795 -1.3655,-0.2693 -2.5846,-0.2693 h -3.3999 z m 0,8.9082 h 4.2349 c 0.7285,0 1.2391,-0.0315 1.5359,-0.0941 0.5144,-0.1032 0.9498,-0.2781 1.2982,-0.525 0.3481,-0.2466 0.6333,-0.6055 0.8589,-1.0763 0.2254,-0.4711 0.3365,-1.0137 0.3365,-1.6282 0,-0.7223 -0.1624,-1.3456 -0.491,-1.8794 -0.3245,-0.5338 -0.7755,-0.9062 -1.3535,-1.1214 -0.574,-0.2154 -1.4051,-0.3229 -2.4854,-0.3229 h -3.9345 z"
         style="fill:#1b1918;fill-rule:evenodd"
         id="path20" />
      <path
         d="m 87.0551,514.1123 6.5225,-19.2693 h 2.4735 l 6.9228,19.2693 h -2.5608 l -1.9673,-5.8399 h -7.1597 l -1.8445,5.8399 z M 91.9468,506.2 h 5.7946 l -1.7733,-5.3419 c -0.5341,-1.624 -0.938,-2.9651 -1.2189,-4.0235 -0.2336,1.2557 -0.5463,2.4894 -0.9383,3.7094 z"
         style="fill:#1b1918;fill-rule:evenodd"
         id="path22" />
      <path
         d="M 104.7586,514.1123 V 494.843 h 5.8578 c 1.3221,0 2.3312,0.0898 3.0279,0.2735 0.9737,0.2557 1.8049,0.7177 2.4937,1.3816 0.8983,0.8612 1.5673,1.9556 2.0103,3.2925 0.4473,1.3365 0.6693,2.8661 0.6693,4.5839 0,1.4624 -0.1505,2.7586 -0.4513,3.8888 -0.3008,1.1305 -0.6888,2.0679 -1.1599,2.808 -0.4746,0.7401 -0.9893,1.3232 -1.5512,1.7447 -0.5584,0.4261 -1.235,0.7492 -2.0267,0.9689 -0.7957,0.2197 -1.7059,0.3274 -2.7349,0.3274 z m 2.2564,-2.2606 h 3.6252 c 1.1202,0 1.999,-0.1165 2.6362,-0.3543 0.637,-0.2379 1.1438,-0.5698 1.5239,-1.0004 0.5301,-0.6055 0.9457,-1.4219 1.2424,-2.4446 0.2971,-1.0224 0.4473,-2.2606 0.4473,-3.7182 0,-2.0185 -0.2928,-3.5705 -0.8747,-4.6559 -0.5817,-1.0854 -1.2901,-1.8122 -2.1252,-2.1798 -0.6018,-0.2648 -1.5715,-0.3949 -2.9092,-0.3949 h -3.5659 z"
         style="fill:#1b1918;fill-rule:evenodd"
         id="path24" />
      <path
         d="m 120.0447,514.1123 6.5225,-19.2693 h 2.4735 l 6.9228,19.2693 h -2.5608 l -1.9673,-5.8399 h -7.1597 l -1.8445,5.8399 z m 4.8917,-7.9123 h 5.7946 l -1.7733,-5.3419 c -0.5341,-1.624 -0.938,-2.9651 -1.2189,-4.0235 -0.2336,1.2557 -0.5463,2.4894 -0.9383,3.7094 z"
         style="fill:#1b1918;fill-rule:evenodd"
         id="path26" />
      <path
         d="M 137.7247,514.1123 V 494.843 h 2.3113 l 8.9215,15.1248 V 494.843 h 2.1609 v 19.2693 h -2.3117 l -8.9209,-15.1248 v 15.1248 z"
         style="fill:#1b1918;fill-rule:evenodd"
         id="path28" />
      <path
         d="M 161.4725,514.1123 V 494.843 h 2.3113 l 8.9215,15.1248 V 494.843 h 2.1609 v 19.2693 h -2.3117 l -8.9209,-15.1248 v 15.1248 z"
         style="fill:#1b1918;fill-rule:evenodd"
         id="path30" />
      <path
         d="m 176.7818,514.1123 6.5225,-19.2693 h 2.4736 l 6.9227,19.2693 h -2.5608 l -1.9672,-5.8399 h -7.1598 l -1.8445,5.8399 z m 4.8918,-7.9123 h 5.7946 l -1.7734,-5.3419 c -0.534,-1.624 -0.938,-2.9651 -1.2189,-4.0235 -0.2336,1.2557 -0.5462,2.4894 -0.9383,3.7094 z"
         style="fill:#1b1918;fill-rule:evenodd"
         id="path32" />
      <path
         d="m 193.7494,507.9226 2.1138,-0.2155 c 0.099,0.9689 0.3325,1.7629 0.7005,2.3863 0.3679,0.619 0.938,1.1213 1.7101,1.5071 0.7716,0.3813 1.6421,0.5741 2.6079,0.5741 0.8592,0 1.6149,-0.1435 2.272,-0.4352 0.657,-0.2914 1.144,-0.6905 1.4646,-1.1976 0.3203,-0.5068 0.4828,-1.0585 0.4828,-1.6506 0,-0.601 -0.1545,-1.1257 -0.4632,-1.5786 -0.3084,-0.4488 -0.8192,-0.8255 -1.5316,-1.135 -0.4552,-0.1973 -1.4646,-0.5114 -3.0279,-0.9374 -1.5633,-0.4261 -2.6558,-0.8252 -3.2811,-1.2022 -0.8113,-0.4845 -1.4131,-1.0854 -1.8088,-1.7986 -0.3997,-0.7132 -0.5976,-1.516 -0.5976,-2.3995 0,-0.978 0.2455,-1.8885 0.7322,-2.7318 0.4867,-0.8478 1.1954,-1.489 2.1334,-1.9287 0.934,-0.4396 1.9749,-0.6593 3.1189,-0.6593 1.2586,0 2.3706,0.2288 3.3324,0.6908 0.9618,0.4575 1.702,1.1347 2.2204,2.0319 0.5185,0.8926 0.7957,1.9063 0.8351,3.0364 l -2.1611,0.1885 c -0.1148,-1.2154 -0.5066,-2.135 -1.1753,-2.7541 -0.6689,-0.6233 -1.6582,-0.9329 -2.9644,-0.9329 -1.3615,0 -2.3551,0.2826 -2.9764,0.8479 -0.6217,0.5649 -0.9343,1.2469 -0.9343,2.0452 0,0.6908 0.2216,1.2605 0.661,1.709 0.4354,0.4439 1.5633,0.9059 3.3922,1.3725 1.8284,0.4708 3.083,0.879 3.7639,1.2291 0.9856,0.5156 1.7175,1.1662 2.1886,1.9599 0.4711,0.7894 0.7047,1.7002 0.7047,2.7317 0,1.027 -0.2574,1.9871 -0.7758,2.8931 -0.5188,0.9059 -1.2589,1.6103 -2.2284,2.1126 -0.9697,0.5023 -2.0582,0.7535 -3.2731,0.7535 -1.5358,0 -2.8222,-0.2557 -3.8591,-0.7625 -1.0409,-0.5069 -1.8524,-1.2694 -2.4421,-2.2921 -0.5938,-1.018 -0.9022,-2.1708 -0.9343,-3.458 z"
         style="fill:#1b1918;fill-rule:evenodd"
         id="path34" />
      <path
         d="M 210.7057,514.1123 V 494.843 h 2.2558 v 19.2693 z"
         style="fill:#1b1918;fill-rule:evenodd"
         id="path36" />
      <path
         d="m 216.2347,504.7333 c 0,-3.1935 0.76,-5.6965 2.2759,-7.5041 1.516,-1.8077 3.4711,-2.7091 5.8697,-2.7091 1.5713,0 2.9844,0.426 4.2469,1.2739 1.2583,0.8475 2.2204,2.0319 2.8811,3.5524 0.6614,1.5159 0.9936,3.2385 0.9936,5.1627 0,1.9511 -0.3484,3.7003 -1.0449,5.239 -0.6967,1.5429 -1.682,2.7091 -2.9565,3.4985 -1.2784,0.794 -2.6558,1.1886 -4.1323,1.1886 -1.6028,0 -3.0314,-0.4394 -4.2942,-1.3142 -1.2586,-0.8747 -2.2165,-2.0678 -2.8656,-3.5838 -0.6491,-1.5114 -0.9737,-3.1127 -0.9737,-4.8039 z m 2.3273,0.0448 c 0,2.319 0.5502,4.1445 1.6506,5.4768 1.1004,1.332 2.4814,2.0004 4.1439,2.0004 1.694,0 3.083,-0.6726 4.1797,-2.0185 1.0922,-1.3456 1.6384,-3.2562 1.6384,-5.7322 0,-1.5653 -0.2335,-2.9336 -0.7004,-4.0998 -0.4671,-1.1662 -1.152,-2.0721 -2.0503,-2.7136 -0.9025,-0.6415 -1.9117,-0.9643 -3.0319,-0.9643 -1.5911,0 -2.9605,0.6191 -4.108,1.8569 -1.148,1.2379 -1.722,3.3013 -1.722,6.1943 z"
         style="fill:#1b1918;fill-rule:evenodd"
         id="path38" />
      <path
         d="M 235.3714,514.1123 V 494.843 h 2.3114 l 8.9215,15.1248 V 494.843 h 2.1608 v 19.2693 h -2.3117 l -8.9209,-15.1248 v 15.1248 z"
         style="fill:#1b1918;fill-rule:evenodd"
         id="path40" />
      <path
         d="m 250.6808,514.1123 6.5225,-19.2693 h 2.4735 l 6.9228,19.2693 h -2.5609 l -1.9672,-5.8399 h -7.1598 l -1.8445,5.8399 z m 4.8917,-7.9123 h 5.7946 l -1.7734,-5.3419 c -0.534,-1.624 -0.938,-2.9651 -1.2189,-4.0235 -0.2335,1.2557 -0.5462,2.4894 -0.9382,3.7094 z"
         style="fill:#1b1918;fill-rule:evenodd"
         id="path42" />
      <path
         d="M 268.2899,514.1123 V 494.843 h 2.2558 v 17.0087 h 8.3593 v 2.2606 z"
         style="fill:#1b1918;fill-rule:evenodd"
         id="path44" />
      <path
         d="m 286.5711,507.9226 2.1138,-0.2155 c 0.0989,0.9689 0.3325,1.7629 0.7004,2.3863 0.3679,0.619 0.938,1.1213 1.7101,1.5071 0.7716,0.3813 1.6421,0.5741 2.6079,0.5741 0.8592,0 1.6149,-0.1435 2.272,-0.4352 0.657,-0.2914 1.144,-0.6905 1.4646,-1.1976 0.3204,-0.5068 0.4828,-1.0585 0.4828,-1.6506 0,-0.601 -0.1545,-1.1257 -0.4632,-1.5786 -0.3084,-0.4488 -0.8192,-0.8255 -1.5316,-1.135 -0.4552,-0.1973 -1.4646,-0.5114 -3.0279,-0.9374 -1.5633,-0.4261 -2.6558,-0.8252 -3.2811,-1.2022 -0.8113,-0.4845 -1.4131,-1.0854 -1.8088,-1.7986 -0.3997,-0.7132 -0.5976,-1.516 -0.5976,-2.3995 0,-0.978 0.2455,-1.8885 0.7322,-2.7318 0.4867,-0.8478 1.1954,-1.489 2.1334,-1.9287 0.934,-0.4396 1.9749,-0.6593 3.1189,-0.6593 1.2586,0 2.3707,0.2288 3.3324,0.6908 0.9618,0.4575 1.702,1.1347 2.2204,2.0319 0.5185,0.8926 0.7957,1.9063 0.8351,3.0364 l -2.1611,0.1885 c -0.1148,-1.2154 -0.5066,-2.135 -1.1753,-2.7541 -0.6689,-0.6233 -1.6582,-0.9329 -2.9644,-0.9329 -1.3615,0 -2.3551,0.2826 -2.9764,0.8479 -0.6217,0.5649 -0.9343,1.2469 -0.9343,2.0452 0,0.6908 0.2217,1.2605 0.661,1.709 0.4354,0.4439 1.5633,0.9059 3.3922,1.3725 1.8284,0.4708 3.083,0.879 3.7639,1.2291 0.9856,0.5156 1.7175,1.1662 2.1886,1.9599 0.4711,0.7894 0.7047,1.7002 0.7047,2.7317 0,1.027 -0.2574,1.9871 -0.7758,2.8931 -0.5188,0.9059 -1.2589,1.6103 -2.2283,2.1126 -0.9698,0.5023 -2.0583,0.7535 -3.2732,0.7535 -1.5358,0 -2.8222,-0.2557 -3.8591,-0.7625 -1.0409,-0.5069 -1.8524,-1.2694 -2.442,-2.2921 -0.5939,-1.018 -0.9023,-2.1708 -0.9343,-3.458 z"
         style="fill:#1b1918;fill-rule:evenodd"
         id="path46" />
      <path
         d="M 303.1946,514.1123 V 494.843 h 12.2777 v 2.2606 h -10.0217 v 5.9207 h 9.3802 v 2.2606 h -9.3802 v 6.5668 h 10.4253 v 2.2606 z"
         style="fill:#1b1918;fill-rule:evenodd"
         id="path48" />
      <path
         d="M 319.0343,514.1123 V 494.843 h 7.5359 c 1.5159,0 2.6677,0.1749 3.4554,0.5204 0.7875,0.3453 1.417,0.9553 1.8879,1.83 0.4711,0.8745 0.7047,1.8434 0.7047,2.9022 0,1.368 -0.3921,2.5205 -1.1716,3.4579 -0.7798,0.9377 -1.9831,1.5296 -3.6136,1.7853 0.5976,0.3232 1.0485,0.646 1.3572,0.9598 0.6571,0.682 1.2785,1.5387 1.8604,2.5659 l 2.9407,5.2478 h -2.81 l -2.2482,-4.0099 c -0.6531,-1.1616 -1.1953,-2.0455 -1.6188,-2.66 -0.4275,-0.6143 -0.8073,-1.0406 -1.1438,-1.2872 -0.3325,-0.2421 -0.6769,-0.4127 -1.025,-0.5114 -0.2534,-0.0581 -0.669,-0.0896 -1.2507,-0.0896 h -2.6044 v 8.5581 z m 2.2561,-10.7648 h 4.8285 c 1.0293,0 1.8289,-0.1214 2.4066,-0.3634 0.5777,-0.2379 1.0174,-0.6237 1.3139,-1.1574 0.301,-0.5293 0.4512,-1.1033 0.4512,-1.7269 0,-0.9105 -0.2888,-1.6639 -0.8708,-2.2515 -0.5816,-0.5877 -1.4998,-0.8791 -2.7547,-0.8791 h -5.3747 z"
         style="fill:#1b1918;fill-rule:evenodd"
         id="path50" />
      <path
         d="m 340.0313,514.1123 v -17.0087 h -5.6043 v -2.2606 h 13.4648 v 2.2606 h -5.6044 v 17.0087 z"
         style="fill:#1b1918;fill-rule:evenodd"
         id="path52" />
      <path
         d="M 350.5952,514.1123 V 494.843 h 2.2558 v 19.2693 z"
         style="fill:#1b1918;fill-rule:evenodd"
         id="path54" />
      <path
         d="M 356.9318,514.1123 V 494.843 h 11.4701 v 2.2606 h -9.214 v 6.0015 h 7.9792 v 2.2606 h -7.9792 v 8.7466 z"
         style="fill:#1b1918;fill-rule:evenodd"
         id="path56" />
      <path
         d="M 371.6991,514.1123 V 494.843 h 2.2559 v 19.2693 z"
         style="fill:#1b1918;fill-rule:evenodd"
         id="path58" />
      <path
         d="M 377.822,514.1123 V 494.843 h 2.2558 v 9.5539 l 8.4464,-9.5539 h 3.0478 l -7.1323,7.8137 7.441,11.4556 h -2.9687 l -6.0517,-9.7242 -2.7825,3.05 v 6.6742 z"
         style="fill:#1b1918;fill-rule:evenodd"
         id="path60" />
      <path
         d="m 391.8926,514.1123 6.5225,-19.2693 h 2.4735 l 6.9228,19.2693 h -2.5608 l -1.9673,-5.8399 h -7.1597 l -1.8445,5.8399 z m 4.8917,-7.9123 h 5.7946 l -1.7733,-5.3419 c -0.5341,-1.624 -0.938,-2.9651 -1.2189,-4.0235 -0.2336,1.2557 -0.5463,2.4894 -0.9383,3.7094 z"
         style="fill:#1b1918;fill-rule:evenodd"
         id="path62" />
      <path
         d="m 408.8599,507.9226 2.1138,-0.2155 c 0.099,0.9689 0.3325,1.7629 0.7005,2.3863 0.3679,0.619 0.938,1.1213 1.7101,1.5071 0.7716,0.3813 1.6421,0.5741 2.6079,0.5741 0.8592,0 1.6149,-0.1435 2.272,-0.4352 0.657,-0.2914 1.144,-0.6905 1.4646,-1.1976 0.3203,-0.5068 0.4828,-1.0585 0.4828,-1.6506 0,-0.601 -0.1545,-1.1257 -0.4632,-1.5786 -0.3084,-0.4488 -0.8192,-0.8255 -1.5316,-1.135 -0.4552,-0.1973 -1.4646,-0.5114 -3.0279,-0.9374 -1.5634,-0.4261 -2.6558,-0.8252 -3.2812,-1.2022 -0.8112,-0.4845 -1.413,-1.0854 -1.8087,-1.7986 -0.3997,-0.7132 -0.5976,-1.516 -0.5976,-2.3995 0,-0.978 0.2455,-1.8885 0.7322,-2.7318 0.4867,-0.8478 1.1954,-1.489 2.1334,-1.9287 0.934,-0.4396 1.9749,-0.6593 3.1189,-0.6593 1.2586,0 2.3706,0.2288 3.3324,0.6908 0.9618,0.4575 1.702,1.1347 2.2204,2.0319 0.5185,0.8926 0.7957,1.9063 0.8351,3.0364 l -2.1611,0.1885 c -0.1148,-1.2154 -0.5066,-2.135 -1.1753,-2.7541 -0.669,-0.6233 -1.6583,-0.9329 -2.9645,-0.9329 -1.3614,0 -2.355,0.2826 -2.9763,0.8479 -0.6217,0.5649 -0.9343,1.2469 -0.9343,2.0452 0,0.6908 0.2216,1.2605 0.661,1.709 0.4354,0.4439 1.5633,0.9059 3.3922,1.3725 1.8284,0.4708 3.083,0.879 3.7639,1.2291 0.9856,0.5156 1.7175,1.1662 2.1886,1.9599 0.4711,0.7894 0.7047,1.7002 0.7047,2.7317 0,1.027 -0.2574,1.9871 -0.7758,2.8931 -0.5188,0.9059 -1.2589,1.6103 -2.2284,2.1126 -0.9697,0.5023 -2.0582,0.7535 -3.2731,0.7535 -1.5358,0 -2.8222,-0.2557 -3.8591,-0.7625 -1.0409,-0.5069 -1.8525,-1.2694 -2.4421,-2.2921 -0.5938,-1.018 -0.9022,-2.1708 -0.9343,-3.458 z"
         style="fill:#1b1918;fill-rule:evenodd"
         id="path64" />
      <path
         d="M 425.8165,514.1123 V 494.843 h 2.2558 v 19.2693 z"
         style="fill:#1b1918;fill-rule:evenodd"
         id="path66" />
      <path
         d="M 438.6319,514.1123 V 494.843 h 6.4199 c 1.1282,0 1.9908,0.0629 2.5886,0.1839 0.8354,0.1571 1.5356,0.4575 2.1016,0.8972 0.5661,0.4439 1.0211,1.063 1.3655,1.857 0.3444,0.7937 0.5145,1.6684 0.5145,2.6237 0,1.6328 -0.4589,3.0189 -1.3811,4.1491 -0.9184,1.1347 -2.5846,1.6999 -4.9912,1.6999 h -4.3614 v 7.8585 z m 2.2564,-10.1191 h 4.3931 c 1.4568,0 2.4857,-0.305 3.0992,-0.9196 0.6097,-0.6142 0.9141,-1.4757 0.9141,-2.5925 0,-0.8028 -0.178,-1.4936 -0.538,-2.0676 -0.3603,-0.5743 -0.8353,-0.9556 -1.421,-1.1393 -0.3801,-0.1122 -1.0806,-0.1706 -2.0976,-0.1706 h -4.3498 z"
         style="fill:#1b1918;fill-rule:evenodd"
         id="path68" />
      <path
         d="M 454.5193,514.1123 V 494.843 h 7.5359 c 1.5159,0 2.6677,0.1749 3.4554,0.5204 0.7875,0.3453 1.4171,0.9553 1.8879,1.83 0.4711,0.8745 0.7047,1.8434 0.7047,2.9022 0,1.368 -0.3921,2.5205 -1.1716,3.4579 -0.7798,0.9377 -1.9831,1.5296 -3.6136,1.7853 0.5976,0.3232 1.0486,0.646 1.3572,0.9598 0.6571,0.682 1.2785,1.5387 1.8604,2.5659 l 2.9407,5.2478 h -2.81 l -2.2482,-4.0099 c -0.6531,-1.1616 -1.1953,-2.0455 -1.6188,-2.66 -0.4275,-0.6143 -0.8073,-1.0406 -1.1438,-1.2872 -0.3325,-0.2421 -0.6769,-0.4127 -1.025,-0.5114 -0.2534,-0.0581 -0.669,-0.0896 -1.2507,-0.0896 h -2.6044 v 8.5581 z m 2.2561,-10.7648 h 4.8285 c 1.0293,0 1.8289,-0.1214 2.4066,-0.3634 0.5777,-0.2379 1.0174,-0.6237 1.3139,-1.1574 0.301,-0.5293 0.4513,-1.1033 0.4513,-1.7269 0,-0.9105 -0.2889,-1.6639 -0.8708,-2.2515 -0.5817,-0.5877 -1.4999,-0.8791 -2.7548,-0.8791 h -5.3747 z"
         style="fill:#1b1918;fill-rule:evenodd"
         id="path70" />
      <path
         d="m 470.933,504.7333 c 0,-3.1935 0.76,-5.6965 2.2759,-7.5041 1.516,-1.8077 3.4711,-2.7091 5.8697,-2.7091 1.5713,0 2.9844,0.426 4.2469,1.2739 1.2583,0.8475 2.2204,2.0319 2.8811,3.5524 0.6614,1.5159 0.9936,3.2385 0.9936,5.1627 0,1.9511 -0.3484,3.7003 -1.0449,5.239 -0.6967,1.5429 -1.682,2.7091 -2.9565,3.4985 -1.2784,0.794 -2.6558,1.1886 -4.1323,1.1886 -1.6028,0 -3.0314,-0.4394 -4.2942,-1.3142 -1.2586,-0.8747 -2.2165,-2.0678 -2.8656,-3.5838 -0.6491,-1.5114 -0.9737,-3.1127 -0.9737,-4.8039 z m 2.3273,0.0448 c 0,2.319 0.5502,4.1445 1.6506,5.4768 1.1004,1.332 2.4814,2.0004 4.1439,2.0004 1.694,0 3.083,-0.6726 4.1797,-2.0185 1.0922,-1.3456 1.6384,-3.2562 1.6384,-5.7322 0,-1.5653 -0.2335,-2.9336 -0.7004,-4.0998 -0.4671,-1.1662 -1.152,-2.0721 -2.0503,-2.7136 -0.9025,-0.6415 -1.9117,-0.9643 -3.0319,-0.9643 -1.5911,0 -2.9605,0.6191 -4.108,1.8569 -1.148,1.2379 -1.722,3.3013 -1.722,6.1943 z"
         style="fill:#1b1918;fill-rule:evenodd"
         id="path72" />
      <path
         d="M 490.2123,514.1123 V 494.843 h 11.4701 v 2.2606 h -9.214 v 6.0015 h 7.9792 v 2.2606 h -7.9792 v 8.7466 z"
         style="fill:#1b1918;fill-rule:evenodd"
         id="path74" />
      <path
         d="M 504.6466,514.1123 V 494.843 h 12.2777 v 2.2606 h -10.0216 v 5.9207 h 9.3801 v 2.2606 h -9.3801 v 6.5668 h 10.4252 v 2.2606 z"
         style="fill:#1b1918;fill-rule:evenodd"
         id="path76" />
      <path
         d="m 519.7025,507.9226 2.1138,-0.2155 c 0.0989,0.9689 0.3325,1.7629 0.7005,2.3863 0.3679,0.619 0.9379,1.1213 1.7101,1.5071 0.7716,0.3813 1.6421,0.5741 2.6079,0.5741 0.8592,0 1.6149,-0.1435 2.2719,-0.4352 0.6571,-0.2914 1.1441,-0.6905 1.4647,-1.1976 0.3203,-0.5068 0.4827,-1.0585 0.4827,-1.6506 0,-0.601 -0.1544,-1.1257 -0.4631,-1.5786 -0.3084,-0.4488 -0.8193,-0.8255 -1.5316,-1.135 -0.4552,-0.1973 -1.4647,-0.5114 -3.028,-0.9374 -1.5633,-0.4261 -2.6557,-0.8252 -3.2811,-1.2022 -0.8112,-0.4845 -1.413,-1.0854 -1.8088,-1.7986 -0.3996,-0.7132 -0.5975,-1.516 -0.5975,-2.3995 0,-0.978 0.2455,-1.8885 0.7322,-2.7318 0.4867,-0.8478 1.1954,-1.489 2.1333,-1.9287 0.9341,-0.4396 1.9749,-0.6593 3.119,-0.6593 1.2586,0 2.3706,0.2288 3.3324,0.6908 0.9618,0.4575 1.7019,1.1347 2.2204,2.0319 0.5184,0.8926 0.7957,1.9063 0.8351,3.0364 l -2.1612,0.1885 c -0.1148,-1.2154 -0.5065,-2.135 -1.1752,-2.7541 -0.669,-0.6233 -1.6583,-0.9329 -2.9645,-0.9329 -1.3615,0 -2.355,0.2826 -2.9764,0.8479 -0.6216,0.5649 -0.9342,1.2469 -0.9342,2.0452 0,0.6908 0.2216,1.2605 0.661,1.709 0.4354,0.4439 1.5633,0.9059 3.3922,1.3725 1.8284,0.4708 3.083,0.879 3.7639,1.2291 0.9856,0.5156 1.7175,1.1662 2.1886,1.9599 0.4711,0.7894 0.7047,1.7002 0.7047,2.7317 0,1.027 -0.2574,1.9871 -0.7759,2.8931 -0.5187,0.9059 -1.2588,1.6103 -2.2283,2.1126 -0.9697,0.5023 -2.0582,0.7535 -3.2731,0.7535 -1.5359,0 -2.8222,-0.2557 -3.8591,-0.7625 -1.0409,-0.5069 -1.8525,-1.2694 -2.4421,-2.2921 -0.5938,-1.018 -0.9022,-2.1708 -0.9343,-3.458 z"
         style="fill:#1b1918;fill-rule:evenodd"
         id="path78" />
      <path
         d="M 536.6588,514.1123 V 494.843 h 2.2558 v 19.2693 z"
         style="fill:#1b1918;fill-rule:evenodd"
         id="path80" />
    </g>
  </g>
</svg>
