<?xml version="1.0" encoding="UTF-8"?>
<svg version="1.1" xmlns="http://www.w3.org/2000/svg" width="300" height="285">
<path d="M0 0 C1.64663442 -0.00966253 3.29326635 -0.01975653 4.93989563 -0.03025818 C8.37153091 -0.04811078 11.80294078 -0.05378978 15.23461914 -0.05200195 C19.61611188 -0.05169601 23.99615786 -0.09281165 28.37730694 -0.14431858 C31.77041695 -0.17776667 35.16317858 -0.18375722 38.55643654 -0.18217278 C40.17149704 -0.18569378 41.78656841 -0.19885567 43.40146446 -0.22216988 C58.54031823 -0.42046896 58.54031823 -0.42046896 64.44612122 4.8250885 C68.04867414 9.28969928 68.23240422 13.22116537 68.11328125 18.8125 C67.66724502 22.65398702 66.41381153 24.68458411 63.80078125 27.50390625 C59.41193974 30.9320468 56.58850186 32.00298954 51.03613281 32.00219727 C50.38807678 32.00771606 49.74002075 32.01323486 49.07232666 32.0189209 C47.67449207 32.02819719 46.27657294 32.02838232 44.87873077 32.02032661 C42.65715364 32.00761653 40.43680478 32.01905987 38.215271 32.03636169 C34.29326061 32.06301261 30.37155402 32.06865992 26.44946289 32.06726074 C20.18756681 32.06503004 13.92604934 32.07948366 7.66429901 32.1228466 C5.49183205 32.13258643 3.31997522 32.12401719 1.14752197 32.114151 C-9.13094126 32.12927715 -18.24229911 33.02471208 -26.4453125 39.703125 C-31.63741244 45.0339893 -35.07026021 52.59589594 -35.265625 60.03125 C-34.85380176 68.92912787 -31.96805497 76.20725164 -25.51171875 82.44140625 C-16.63636858 90.4508686 -3.12625223 88.93795951 7.921875 88.94335938 C15.32449957 89.05123682 20.57650274 89.33680454 26.80078125 93.50390625 C30.69225038 97.91632354 31.44798025 102.33293492 31.18359375 108.140625 C30.39574767 113.00436866 27.89547454 115.60920796 24.19360352 118.63476562 C19.94605058 120.97478615 16.90020603 121.08447992 12.140625 121.03515625 C11.31430069 121.03898315 10.48797638 121.04281006 9.63661194 121.04675293 C7.89094828 121.04946625 6.14524356 121.04214567 4.3996582 121.02539062 C1.77003549 121.00416259 -0.85679512 121.02511041 -3.48632812 121.05078125 C-21.84475438 121.08143733 -36.96235958 116.33743465 -50.5546875 103.40625 C-63.52691093 89.1693785 -68.27910921 72.99311506 -67.42138672 54.04492188 C-66.4316114 42.72450267 -62.04252761 32.50584274 -55.19921875 23.50390625 C-54.50957031 22.5809375 -53.81992188 21.65796875 -53.109375 20.70703125 C-52.47902344 19.98 -51.84867188 19.25296875 -51.19921875 18.50390625 C-50.53921875 18.50390625 -49.87921875 18.50390625 -49.19921875 18.50390625 C-48.86921875 17.51390625 -48.53921875 16.52390625 -48.19921875 15.50390625 C-33.81640507 3.24219438 -18.32998395 0.02548632 0 0 Z " fill="#007CFF" transform="translate(148.19921875,65.49609375)"/>
<path d="M0 0 C10.23 0 20.46 0 31 0 C31 20.13 31 40.26 31 61 C30.34 60.67 29.68 60.34 29 60 C29 59.34 29 58.68 29 58 C18.66689531 52.64209387 13.92377207 53.6961886 0 53 C0 35.51 0 18.02 0 0 Z " fill="#007DFF" transform="translate(148,100)"/>
<path d="M0 0 C3.53661912 2.42776012 5.5796784 5.49151086 7.1875 9.4375 C7.51844454 12.29127394 7.66075065 14.72673061 7.578125 17.55859375 C7.57246521 18.30335464 7.56680542 19.04811554 7.56097412 19.81544495 C7.5387735 22.1693138 7.4886137 24.5215997 7.4375 26.875 C7.41741366 28.48109764 7.39916664 30.0872194 7.3828125 31.69335938 C7.34238092 35.60915742 7.26407421 39.52157979 7.1875 43.4375 C-3.0425 43.4375 -13.2725 43.4375 -23.8125 43.4375 C-23.92773676 38.57963052 -24.02712174 33.7265592 -24.0871582 28.8684082 C-24.11219835 27.21850459 -24.14624134 25.56871076 -24.18969727 23.91918945 C-24.25081952 21.53829788 -24.27881294 19.15888069 -24.30078125 16.77734375 C-24.32658768 16.04789047 -24.3523941 15.31843719 -24.37898254 14.56687927 C-24.38200113 8.9702154 -22.64575632 5.50478258 -18.8125 1.4375 C-13.1316645 -2.56490683 -6.24951891 -3.11134847 0 0 Z " fill="#007CFF" transform="translate(171.8125,20.5625)"/>
<path d="M0 0 C0.76183594 -0.01417969 1.52367188 -0.02835938 2.30859375 -0.04296875 C4.79597315 0.21137334 6.41058106 0.94732804 8.5625 2.1875 C9.2225 1.5275 9.8825 0.8675 10.5625 0.1875 C12.7265625 -0.0078125 12.7265625 -0.0078125 15.1875 0.0625 C16.41339844 0.08957031 16.41339844 0.08957031 17.6640625 0.1171875 C18.60378906 0.15199219 18.60378906 0.15199219 19.5625 0.1875 C19.63699853 5.3286629 19.69126593 10.46950729 19.72729492 15.61108398 C19.74232429 17.3578845 19.76275354 19.10464765 19.78881836 20.85131836 C19.8254608 23.37102515 19.84228492 25.89023039 19.85546875 28.41015625 C19.87095261 29.18335709 19.88643646 29.95655792 19.90238953 30.75318909 C19.90428075 36.93146654 18.45959606 41.26281023 15.0625 46.5 C9.77294472 50.07044981 2.98090187 50.71103741 -3.25 49.75 C-7.46507292 48.59009684 -9.72710547 46.37860871 -12.44140625 43.0390625 C-13.4375 41.1875 -13.4375 41.1875 -13.4375 37.1875 C-11.98007537 37.10653197 -10.52137193 37.04832226 -9.0625 37 C-8.25039062 36.96519531 -7.43828125 36.93039062 -6.6015625 36.89453125 C-5.88742188 36.99121094 -5.17328125 37.08789062 -4.4375 37.1875 C-3.7775 38.1775 -3.1175 39.1675 -2.4375 40.1875 C1.09140972 41.28538302 2.95229333 41.41301116 6.4375 40.125 C8.91018839 38.30484522 8.91018839 38.30484522 8.875 35 C8.771875 34.071875 8.66875 33.14375 8.5625 32.1875 C7.99402344 32.51105469 7.42554687 32.83460938 6.83984375 33.16796875 C3.13506951 34.82653835 -0.45260765 34.65168997 -4.4375 34.1875 C-9.13173493 32.10117337 -12.54972027 29.14061541 -14.6875 24.4375 C-16.28184122 17.52868805 -15.9312834 11.41554866 -12.4375 5.1875 C-8.55834636 1.4053252 -5.36647926 0.04524856 0 0 Z M-3.8125 9.75 C-5.97288251 12.99057376 -6.36937446 15.30434403 -6.4375 19.1875 C-4.84911066 22.76137602 -3.72115642 23.99839572 -0.4375 26.1875 C3.15073475 26.05934876 5.61789031 25.91881073 8.5 23.6875 C10.12977143 19.85274369 10.22400072 16.28429423 9.5625 12.1875 C8.18533334 9.47642287 8.18533334 9.47642287 5.5625 8.1875 C1.64798544 7.62828363 -0.4757229 7.55475191 -3.8125 9.75 Z " fill="#000000" transform="translate(77.4375,228.8125)"/>
<path d="M0 0 C2.97 0 5.94 0 9 0 C9 14.85 9 29.7 9 45 C6.03 45 3.06 45 0 45 C-0.33 44.01 -0.66 43.02 -1 42 C-1.639375 42.495 -2.27875 42.99 -2.9375 43.5 C-7.05285302 45.51568311 -10.49196833 45.60763997 -15 45 C-18.69203203 43.35909687 -21.46556215 41.14619871 -24 38 C-26.32102021 31.84929645 -26.86999998 26.65578942 -24.8125 20.375 C-22.37381802 15.83400597 -19.96964213 12.65654738 -15 11 C-12.9140625 10.796875 -12.9140625 10.796875 -10.625 10.75 C-9.87476562 10.72421875 -9.12453125 10.6984375 -8.3515625 10.671875 C-6 11 -6 11 -1 14 C-0.67 9.38 -0.34 4.76 0 0 Z M-14.375 21.125 C-16.19266152 24.34086269 -17 26.29655304 -17 30 C-14.75278859 34.2420814 -14.75278859 34.2420814 -11 37 C-7.51976047 37.37828691 -5.65953219 37.42780466 -2.6875 35.5 C-0.37364524 32.07206702 0.45162027 29.13589085 0 25 C-1.29107282 22.07192096 -2.41650398 21.15291335 -5 19 C-9.32070383 18.16617996 -11.06083185 18.15969166 -14.375 21.125 Z " fill="#000000" transform="translate(32,218)"/>
<path d="M0 0 C1.29550781 -0.02126953 1.29550781 -0.02126953 2.6171875 -0.04296875 C5.2491288 0.19890748 6.86480544 0.85766459 9.125 2.1875 C9.455 1.5275 9.785 0.8675 10.125 0.1875 C13.095 0.1875 16.065 0.1875 19.125 0.1875 C19.125 11.4075 19.125 22.6275 19.125 34.1875 C16.155 34.1875 13.185 34.1875 10.125 34.1875 C10.125 33.1975 10.125 32.2075 10.125 31.1875 C9.3 31.6825 8.475 32.1775 7.625 32.6875 C2.31092638 34.96496012 -1.70561637 34.9801594 -7.125 33 C-11.11061154 30.37311967 -13.36480531 27.71808408 -14.875 23.1875 C-15.81759819 10.62556647 -15.81759819 10.62556647 -11.875 5.1875 C-7.8332132 1.54003386 -5.40232599 0.0400766 0 0 Z M-4.875 12.1875 C-6.32647903 15.09045805 -6.24739025 16.96011779 -5.875 20.1875 C-3.53445491 23.90483632 -2.22821372 25.87738852 2.125 26.875 C6.23724846 25.93260973 7.69084727 24.62395091 10.125 21.1875 C10.83362744 18.35299024 10.83362744 16.02200976 10.125 13.1875 C7.65948014 9.70676607 6.27606301 8.39891974 2.0625 7.625 C-1.49234581 8.30571515 -2.652046 9.38822459 -4.875 12.1875 Z " fill="#000000" transform="translate(155.875,228.8125)"/>
<path d="M0 0 C3.96176021 2.89884894 6.02265582 6.25546747 7.5625 10.875 C7.5625 13.515 7.5625 16.155 7.5625 18.875 C-0.3575 18.875 -8.2775 18.875 -16.4375 18.875 C-14.19143583 23.88931959 -14.19143583 23.88931959 -11.46484375 24.46875 C-9.44803267 24.37827623 -7.44025675 24.12931832 -5.4375 23.875 C-4.7775 22.885 -4.1175 21.895 -3.4375 20.875 C-1.0546875 20.58203125 -1.0546875 20.58203125 1.6875 20.6875 C2.59757812 20.71457031 3.50765625 20.74164063 4.4453125 20.76953125 C5.14398438 20.80433594 5.84265625 20.83914062 6.5625 20.875 C5.69092981 25.25179813 3.6498672 27.64729792 0.5625 30.875 C-3.90877647 33.68551664 -9.32621275 33.50592452 -14.4375 32.875 C-18.61281988 31.55439693 -21.11004872 29.27801696 -23.875 25.875 C-26.39119497 20.85345572 -26.0597286 15.3308825 -25.4375 9.875 C-23.81587809 5.09548279 -21.60144853 2.68566526 -17.4375 -0.125 C-11.77103943 -2.01382019 -5.65180374 -1.84968122 0 0 Z M-13.25 7.0625 C-15.69361213 8.76209035 -15.69361213 8.76209035 -16.4375 11.875 C-11.8175 11.875 -7.1975 11.875 -2.4375 11.875 C-4.00923506 7.74336799 -4.00923506 7.74336799 -7.25 6.4375 C-10.44160132 5.57674026 -10.44160132 5.57674026 -13.25 7.0625 Z " fill="#000000" transform="translate(222.4375,230.125)"/>
<path d="M0 0 C2.97 0 5.94 0 9 0 C9.33 0.66 9.66 1.32 10 2 C10.56976563 1.67773438 11.13953125 1.35546875 11.7265625 1.0234375 C15.45548639 -0.65521896 18.99065967 -0.54989216 23 0 C27.4714007 2.07009292 29.56134709 4.21561635 31.41113281 8.77758789 C32.63767218 13.40660443 32.3025297 18.18588864 32.1875 22.9375 C32.16719727 24.53561523 32.16719727 24.53561523 32.14648438 26.16601562 C32.11134724 28.77787588 32.06215184 31.38866634 32 34 C30.52093108 34.02689216 29.04172517 34.04634621 27.5625 34.0625 C26.32693359 34.07990234 26.32693359 34.07990234 25.06640625 34.09765625 C23 34 23 34 22 33 C21.8670122 31.39011809 21.79666237 29.77495575 21.75390625 28.16015625 C21.72103516 27.17982422 21.68816406 26.19949219 21.65429688 25.18945312 C21.5932168 23.10883172 21.53591031 21.02809603 21.48242188 18.94726562 C21.43118164 17.47483398 21.43118164 17.47483398 21.37890625 15.97265625 C21.3538501 15.06781494 21.32879395 14.16297363 21.30297852 13.23071289 C21.2018615 10.79819013 21.2018615 10.79819013 19 9 C15.5 8.58333333 15.5 8.58333333 12 9 C9.84250216 12.23624676 9.71639512 13.34394066 9.5859375 17.10546875 C9.52792969 18.57983398 9.52792969 18.57983398 9.46875 20.08398438 C9.4378125 21.10814453 9.406875 22.13230469 9.375 23.1875 C9.31699219 24.74114258 9.31699219 24.74114258 9.2578125 26.32617188 C9.16351704 28.88393622 9.07791798 31.44169287 9 34 C6.03 34 3.06 34 0 34 C0 22.78 0 11.56 0 0 Z " fill="#000000" transform="translate(235,229)"/>
<path d="M0 0 C3.3 0 6.6 0 10 0 C10 2.64 10 5.28 10 8 C12.31 8 14.62 8 17 8 C17 10.64 17 13.28 17 16 C14.69 16 12.38 16 10 16 C10.33 21.61 10.66 27.22 11 33 C12.98 33.33 14.96 33.66 17 34 C17 36.64 17 39.28 17 42 C11.28418883 42.19375631 6.93903582 42.30924243 2.25 38.625 C-0.00495182 35.69356263 -0.12494538 32.49279065 -0.09765625 28.890625 C-0.09282227 27.75947266 -0.09282227 27.75947266 -0.08789062 26.60546875 C-0.07951172 25.82816406 -0.07113281 25.05085938 -0.0625 24.25 C-0.05798828 23.45722656 -0.05347656 22.66445312 -0.04882812 21.84765625 C-0.03708565 19.89840492 -0.01915146 17.94919262 0 16 C-1.32 16 -2.64 16 -4 16 C-4 13.36 -4 10.72 -4 8 C-2.68 8 -1.36 8 0 8 C0 5.36 0 2.72 0 0 Z " fill="#000000" transform="translate(121,221)"/>
<path d="M0 0 C2.97 0 5.94 0 9 0 C9 2.64 9 5.28 9 8 C11.31 8 13.62 8 16 8 C16 10.64 16 13.28 16 16 C13.69 16 11.38 16 9 16 C9.33 21.61 9.66 27.22 10 33 C11.98 33.33 13.96 33.66 16 34 C16 36.64 16 39.28 16 42 C10.34139667 42.3464451 6.91920235 41.60428359 2 39 C-0.13604308 35.79593538 -0.24208908 35.00399253 -0.1953125 31.33203125 C-0.18886719 30.43935547 -0.18242187 29.54667969 -0.17578125 28.62695312 C-0.15902344 27.69818359 -0.14226562 26.76941406 -0.125 25.8125 C-0.11597656 24.87212891 -0.10695313 23.93175781 -0.09765625 22.96289062 C-0.07409056 20.64167032 -0.04119116 18.32096356 0 16 C-1.32 16 -2.64 16 -4 16 C-4 13.36 -4 10.72 -4 8 C-2.68 8 -1.36 8 0 8 C0 5.36 0 2.72 0 0 Z " fill="#000000" transform="translate(275,221)"/>
<path d="M0 0 C0.721875 0.00257813 1.44375 0.00515625 2.1875 0.0078125 C2.909375 0.00523437 3.63125 0.00265625 4.375 0 C6.1875 0.1328125 6.1875 0.1328125 7.1875 1.1328125 C7.28535341 2.47825577 7.31547985 3.82873813 7.31689453 5.17773438 C7.32004669 6.03532349 7.32319885 6.8929126 7.32644653 7.77648926 C7.3244223 8.70876343 7.32239807 9.6410376 7.3203125 10.6015625 C7.32126923 11.55220581 7.32222595 12.50284912 7.32321167 13.4822998 C7.32389357 15.49650132 7.32203862 17.51070502 7.31787109 19.52490234 C7.31252298 22.61951605 7.31781577 25.7139846 7.32421875 28.80859375 C7.32355797 30.76041699 7.32227681 32.71224014 7.3203125 34.6640625 C7.32233673 35.59633667 7.32436096 36.52861084 7.32644653 37.48913574 C7.32329437 38.34672485 7.32014221 39.20431396 7.31689453 40.08789062 C7.31570114 41.22587097 7.31570114 41.22587097 7.31448364 42.38684082 C7.1875 44.1328125 7.1875 44.1328125 6.1875 45.1328125 C4.375 45.265625 4.375 45.265625 2.1875 45.2578125 C1.465625 45.26039063 0.74375 45.26296875 0 45.265625 C-1.8125 45.1328125 -1.8125 45.1328125 -2.8125 44.1328125 C-2.91035341 42.78736923 -2.94047985 41.43688687 -2.94189453 40.08789062 C-2.94504669 39.23030151 -2.94819885 38.3727124 -2.95144653 37.48913574 C-2.9494223 36.55686157 -2.94739807 35.6245874 -2.9453125 34.6640625 C-2.94626923 33.71341919 -2.94722595 32.76277588 -2.94821167 31.7833252 C-2.94889357 29.76912368 -2.94703862 27.75491998 -2.94287109 25.74072266 C-2.93752298 22.64610895 -2.94281577 19.5516404 -2.94921875 16.45703125 C-2.94855797 14.50520801 -2.94727681 12.55338486 -2.9453125 10.6015625 C-2.94733673 9.66928833 -2.94936096 8.73701416 -2.95144653 7.77648926 C-2.94829437 6.91890015 -2.94514221 6.06131104 -2.94189453 5.17773438 C-2.94109894 4.41908081 -2.94030334 3.66042725 -2.93948364 2.87878418 C-2.76304315 0.45280162 -2.42146329 0.17743481 0 0 Z " fill="#000000" transform="translate(184.8125,217.8671875)"/>
<path d="M0 0 C2.97 0 5.94 0 9 0 C9 11.22 9 22.44 9 34 C6.03 34 3.06 34 0 34 C0 22.78 0 11.56 0 0 Z " fill="#000000" transform="translate(104,229)"/>
<path d="M0 0 C2.97 0 5.94 0 9 0 C9 11.22 9 22.44 9 34 C6.03 34 3.06 34 0 34 C0 22.78 0 11.56 0 0 Z " fill="#000000" transform="translate(48,229)"/>
<path d="M0 0 C3.5625 0.1875 3.5625 0.1875 5.5625 2.1875 C5.8125 5.1875 5.8125 5.1875 5.5625 8.1875 C3.5625 10.1875 3.5625 10.1875 0.0625 10.5 C-1.67 10.3453125 -1.67 10.3453125 -3.4375 10.1875 C-5.4375 7.1875 -5.4375 7.1875 -5.125 4.0625 C-4.20842511 0.22955046 -4.20842511 0.22955046 0 0 Z " fill="#000000" transform="translate(52.4375,215.8125)"/>
<path d="M0 0 C1.175625 0.0825 2.35125 0.165 3.5625 0.25 C5.5625 3.25 5.5625 3.25 5.25 6.375 C4.5625 9.25 4.5625 9.25 3.5625 10.25 C0.125 10.5 0.125 10.5 -3.4375 10.25 C-5.4375 7.25 -5.4375 7.25 -5.125 4.125 C-4.21183628 0.30631537 -4.21183628 0.30631537 0 0 Z " fill="#000000" transform="translate(108.4375,215.75)"/>
</svg>
